<svg width="73" height="73" viewBox="0 0 73 73" fill="none" xmlns="http://www.w3.org/2000/svg">
<g clip-path="url(#clip0_401_7510)">
<g clip-path="url(#clip1_401_7510)">
<path d="M62.9082 46L53.1582 36.25H30.4082C29.5463 36.25 28.7196 35.9076 28.1101 35.2981C27.5006 34.6886 27.1582 33.862 27.1582 33V13.5C27.1582 12.638 27.5006 11.8114 28.1101 11.2019C28.7196 10.5924 29.5463 10.25 30.4082 10.25H59.6582C60.5202 10.25 61.3468 10.5924 61.9563 11.2019C62.5658 11.8114 62.9082 12.638 62.9082 13.5V46Z" stroke="#3F3A64" stroke-width="2.75" stroke-linecap="round" stroke-linejoin="round"/>
<path d="M40.1582 49.25V55.75C40.1582 56.612 39.8158 57.4386 39.2063 58.0481C38.5968 58.6576 37.7702 59 36.9082 59H14.1582L4.4082 68.75V36.25C4.4082 35.388 4.75061 34.5614 5.36011 33.9519C5.9696 33.3424 6.79625 33 7.6582 33H14.1582" stroke="#20AD96" stroke-width="2.75" stroke-linecap="round" stroke-linejoin="round"/>
</g>
</g>
<defs>
<clipPath id="clip0_401_7510">
<rect width="72" height="72" fill="white" transform="translate(0.658203 0.5)"/>
</clipPath>
<clipPath id="clip1_401_7510">
<rect width="78" height="78" fill="white" transform="translate(-5.3418 0.5)"/>
</clipPath>
</defs>
</svg>
