<svg width="17" height="16" viewBox="0 0 17 16" fill="none" xmlns="http://www.w3.org/2000/svg">
<path d="M16.928 0.158024L16.544 3.13402C15.6053 3.07002 14.88 3.24069 14.368 3.64602C13.856 4.05136 13.5147 4.61669 13.344 5.34202C13.1733 6.06736 13.1413 6.88869 13.248 7.80602H16.928V15.518H9.856V7.16602C9.856 4.64869 10.4533 2.75002 11.648 1.47002C12.864 0.168692 14.624 -0.268642 16.928 0.158024ZM7.072 0.158024L6.688 3.13402C5.74933 3.07002 5.024 3.24069 4.512 3.64602C4 4.05136 3.65867 4.61669 3.488 5.34202C3.31733 6.06736 3.28533 6.88869 3.392 7.80602H7.072V15.518H0V7.16602C0 4.64869 0.597333 2.75002 1.792 1.47002C3.008 0.168692 4.768 -0.268642 7.072 0.158024Z" fill="#565042"/>
</svg>
